<svg id="图层_1" data-name="图层 1" xmlns="http://www.w3.org/2000/svg" xmlns:xlink="http://www.w3.org/1999/xlink" viewBox="0 0 833.32 589.21"><defs><style>.cls-1{fill:url(#未命名的渐变_7);}</style><linearGradient id="未命名的渐变_7" x1="116.15" y1="301.17" x2="246.61" y2="273.44" gradientUnits="userSpaceOnUse"><stop offset="0" stop-color="#fff" stop-opacity="0"/><stop offset="0.34" stop-color="#28bef1"/><stop offset="0.39" stop-color="#25b1ef"/><stop offset="0.68" stop-color="#1573e7"/><stop offset="0.89" stop-color="#0c4ce2"/><stop offset="1" stop-color="#083de0"/></linearGradient></defs><path class="cls-1" d="M236,298.53c3.52-5.85,5.62-13.06,5.62-21.81,0-29-20.24-43.16-44.51-43.16H175a19.68,19.68,0,0,1-17-9.75l-2.31-3.95a19.7,19.7,0,0,0-17-9.75H99.53L106,239.72H136.5A20.61,20.61,0,0,1,154.35,250h0c3.44,6.34,7.53,15.87,17.3,15.87h20.13c27.27,0,22.37,22.83,2.19,22.83l-2,.12H181.18a12.52,12.52,0,0,1-10.8-6.2l-4.39-7.5a19.68,19.68,0,0,0-17-9.75H109.87L116.38,295h31.27a19.27,19.27,0,0,1,17,10.29h0c3.45,6.34,7.53,15.87,17.31,15.87h24.25c27.27,0,22.37,22.83,2.19,22.83-12.77,0-16.93.08-16.93.08-7,0-9.35-3.71-12.88-9.75l-2.31-3.95a19.71,19.71,0,0,0-17-9.75h-39l6.51,29.61h35.7c7.05,0,9.38,2,12.54,8.3,3.44,6.34,7.69,15.87,17.31,15.87l15.45,0c28,0,50.17-12,50.31-42.37C258.21,310.3,242.05,300.57,236,298.53Z"/><path d="M273.05,271.3v-8.83h4.84V246h8.76v16.52h4.05v8.83h-4.05v37.17h-8.76V271.3Zm17.45-13.81v-6.77h17.85V246h8.7v4.77h5l-1.52-3.78,8.56-.86,1.92,4.64h4.38v6.77H317.05v2.72h16V285.5H328.8v2.32h7v6.91h-7v3.78c0,3.14-.65,5.42-1.93,6.84s-3.69,2.32-7,2.45c-2.61.14-5.62.22-9,.27-.45-2.3-1.11-5-2-8.1,3.06.13,5.51.2,7.37.2a3.92,3.92,0,0,0,2.92-.86,4.51,4.51,0,0,0,.73-3v-1.59H301.52l6.77,5-6,6.37c-2.08-1.94-5-4.47-8.89-7.56l3.85-3.85h-8.1v-6.91H319.9V285.1h4.91v-1.92h-7.76v2.59h-8.7v-2.59h-7.7v2.92h-8.22V260.21h15.92v-2.72Zm10.15,9v2.92h7.7v-2.92Zm0,8.37v2.92h7.7v-2.92Zm24.16-8.37h-7.76v2.92h7.76Zm-7.76,8.37v2.92h7.76v-2.92Z"/><path d="M342.8,308.73l-3.52-11.21q3.59-3.19,6.84-5.85V276.21h-6.57v-9.09h15.93v25.35a12.54,12.54,0,0,0,5.24,4.45,18.94,18.94,0,0,0,7.23,1.32q18.85.13,34.52-.13c-.53,1.69-1.44,4.76-2.73,9.23q-23.08-.13-34-.53-10.27-.07-15.06-7Q344.79,306.21,342.8,308.73Zm6.57-45.46q-3.58-6.43-7.7-13.14l8.23-4.25q5,7.63,8.23,12.68Zm38.1,32.39q-4.05,0-5.84-1.8c-1.24-1.23-1.86-3.25-1.86-6V273.56h-4.85q-.33,8.29-2.52,13-2.32,4.92-8.56,10.16-3.06-3.25-7-7,5.11-3.65,6.77-6.7t1.93-9.42h-7.7v-8.43h42.54v8.43H389.13v12.21a2.21,2.21,0,0,0,.33,1.39,1.39,1.39,0,0,0,1.13.4h.86a2,2,0,0,0,2.25-2.06q.35-2.58.73-7.7,6.12,2.26,7.24,2.59c-.4,3.54-.86,6.6-1.39,9.16a7.42,7.42,0,0,1-2.46,4.65,9.11,9.11,0,0,1-5.57,1.46Zm-26.82-38.3v-8.49h36.71v8.49Z"/><path d="M412,308.4V279q-2.65,4.25-4.85,7.3-.74-5.44-1.79-12.74A106.13,106.13,0,0,0,416.14,246l9.49,2.32c-.44,1.42-.88,2.81-1.33,4.18h16.53L439,246.81l10.81-.8,1.73,6.44h16.79v8.16H424.24v-7.89q-1.8,5.18-3.46,9.09V308.4Zm14.33,0V283.91h39.16V308.4h-9v-3.19H435.25v3.19Zm.27-37.63V263.6h38.56v7.17Zm0,10.15v-7.17h38.56v7.17Zm8.69,10.75v5.71h21.18v-5.71Z"/><path d="M479.65,305.08l-7.76-3.58q3.51-7.17,6.1-13.87l8,2.92Q482.58,299.1,479.65,305.08Zm-1.19-18.85V251H496c.44-1.24,1-3,1.59-5.18l10.42.67L506,251h22.9v35.24H506.33l5.58,7.17-7.76,4.38q-2.86-4.32-5.51-8.16l6.37-3.39ZM527.37,304q-2.18-3.91-5.24-8.69-.39,2.06-1.79,6.63a7.06,7.06,0,0,1-3.12,4.12,14,14,0,0,1-6.77,1.33H495q-8.43.06-8.17-8.63V288.36H496v7.83a4.28,4.28,0,0,0,.86,3.05,4.14,4.14,0,0,0,3,.86h8.1a5.71,5.71,0,0,0,3.18-.66,4.54,4.54,0,0,0,1.46-2.59,47.86,47.86,0,0,0,1.13-5.11c1.86.75,4.51,1.7,8,2.86l-2.39-3.79,7.43-3.85q4.9,7,8.5,12.48Zm-39.62-46.2v3.26h31.79v-3.26Zm0,9.17v3.25h31.79V267Zm0,9.15v3.26h31.79v-3.26Z"/><path d="M539.06,265.13v-8.56h6.43V246.15h9v10.42h5v8.56h-5v9l5.58-1.06q0,6.57.07,9.16l-5.65,1.19v16q0,4.19-1.72,6.17a7.41,7.41,0,0,1-5.18,2.13c-3,.26-5.37.39-7.1.39q-.33-2.91-1.46-9,.79.06,4.11.06a2.51,2.51,0,0,0,1.93-.66,3.9,3.9,0,0,0,.46-2.26V285.37l-6.57,1.46-.59-10.22q3.38-.41,7.16-1V265.13Zm22.23-2v-8.5H575.1v-8.56h9.49v8.56h15.73v8.5H584.59v6.43h13.67v8.76a48.8,48.8,0,0,1-10.82,15.53,63.05,63.05,0,0,0,14.14,5.38q-2.19,4.51-4.45,9a83,83,0,0,1-17.26-8.36,95.33,95.33,0,0,1-18.64,8.89q-3-5.12-5.05-8.43a85.32,85.32,0,0,0,16.13-6.57,60.88,60.88,0,0,1-9.83-13.34l4.92-2.52h-5.71v-8.3H575.1v-6.43Zm27.21,14.73H571.11a46.57,46.57,0,0,0,8.76,10.75A35.79,35.79,0,0,0,588.5,277.87Z"/><path d="M607,269v-9.16h24.36V246h9.55v13.93h12.41q-1-1-8.22-7.7l5.84-5.37q3.91,3,10.08,8.49l-4.77,4.58h9.42V269H643.32a55.32,55.32,0,0,0,10.22,12.88,61.25,61.25,0,0,0,14.34,9.22q-2.32,5.31-4.25,10.22a83.54,83.54,0,0,1-13.27-9.55,56,56,0,0,1-9.43-11.62v28.34h-9.55V280.66a59.07,59.07,0,0,1-9.1,11.61,81.85,81.85,0,0,1-13.07,10.09q-3.06-6.71-4.58-9.76a68,68,0,0,0,14.6-10.42A53.33,53.33,0,0,0,629,269Z"/><path d="M695.29,290.74c-4.29-4.68-6.5-7.1-6.64-7.23v24.82h-8.76v-21.5q-2.52,2.25-6.3,5-1.2-5-2.59-10,9.82-6.57,14.2-14.86H672.53v-8.1h11.28q-3.45-5.64-5.91-9.23l7.5-4q1.2,1.53,6.51,8.9l-7.63,4.38h10.48v8a68.76,68.76,0,0,1-6.11,10.42v3.71l4.59-4.18q4.77,4.38,8.36,8Zm2.19-18.25v-9h12V246.15h9.62v17.38h12.61v9H719.12v24.16h14.67v9H694.36v-9H709.5V272.49Z"/><path d="M280.36,322H295.3a36.77,36.77,0,0,1,8.05.74,12.59,12.59,0,0,1,5.07,2.23,8,8,0,0,1,2.65,3.74,16.14,16.14,0,0,1,.77,5.23,10.91,10.91,0,0,1-1.4,5.75,8.18,8.18,0,0,1-5.05,3.32v.26q7.78,2,7.79,10.28a17.32,17.32,0,0,1-.77,5.39,8.72,8.72,0,0,1-2.65,4,12.8,12.8,0,0,1-5.07,2.49,31.74,31.74,0,0,1-8.05.86H280.36Zm13,18.26a31.47,31.47,0,0,0,4.06-.22,8.12,8.12,0,0,0,2.77-.8,3.57,3.57,0,0,0,1.6-1.59,6.05,6.05,0,0,0,.51-2.69,6.2,6.2,0,0,0-.51-2.74,3.7,3.7,0,0,0-1.56-1.6,7.39,7.39,0,0,0-2.78-.73c-1.15-.11-2.51-.16-4.09-.16h-3.26v10.53Zm1.21,18.27a29.21,29.21,0,0,0,4.25-.26,7.51,7.51,0,0,0,2.72-.86,3.29,3.29,0,0,0,1.43-1.69,7.89,7.89,0,0,0,.42-2.81,7.27,7.27,0,0,0-.42-2.62,3.71,3.71,0,0,0-1.4-1.76,7,7,0,0,0-2.72-1,26.77,26.77,0,0,0-4.28-.29h-4.47v11.24Z"/><path d="M336.11,367a28.53,28.53,0,0,1-7.19-.83,11.89,11.89,0,0,1-5.3-2.88,13.17,13.17,0,0,1-3.29-5.49,33.37,33.37,0,0,1,0-17.37,13.17,13.17,0,0,1,3.29-5.49,11.87,11.87,0,0,1,5.3-2.87,28.08,28.08,0,0,1,7.19-.83,27.7,27.7,0,0,1,7.15.83,11.93,11.93,0,0,1,5.27,2.87,13.16,13.16,0,0,1,3.28,5.49,33.37,33.37,0,0,1,0,17.37,13.16,13.16,0,0,1-3.28,5.49,11.94,11.94,0,0,1-5.27,2.88A28.14,28.14,0,0,1,336.11,367Zm0-7a10.68,10.68,0,0,0,3.54-.51,4.61,4.61,0,0,0,2.3-1.75,8.26,8.26,0,0,0,1.21-3.36,33.07,33.07,0,0,0,.35-5.23,30.6,30.6,0,0,0-.38-5.24,8.85,8.85,0,0,0-1.25-3.38,4.68,4.68,0,0,0-2.26-1.82,9.87,9.87,0,0,0-3.51-.55,10.14,10.14,0,0,0-3.55.55,4.68,4.68,0,0,0-2.3,1.82,8.53,8.53,0,0,0-1.21,3.38,32,32,0,0,0-.35,5.24,30.48,30.48,0,0,0,.38,5.23,8.56,8.56,0,0,0,1.25,3.36,4.59,4.59,0,0,0,2.26,1.75A10.44,10.44,0,0,0,336.11,359.94Z"/><path d="M359.48,371.12c2.89,0,5-.42,6.25-1.25a6.58,6.58,0,0,0,2.69-3.86L355,331.85h10.28l8.11,24.58h.38l7.66-24.58h10l-11.55,31.29a60.5,60.5,0,0,1-3.42,7.69,16.15,16.15,0,0,1-4,4.92,13.7,13.7,0,0,1-5.4,2.58,31.8,31.8,0,0,1-7.59.77Z"/><path d="M426.84,331.85v34.48h-8.36l-.7-4.15a8.74,8.74,0,0,1-4.12,3.64,16.4,16.4,0,0,1-6.48,1.15,17.22,17.22,0,0,1-5.4-.74,8.46,8.46,0,0,1-3.58-2.2,8.75,8.75,0,0,1-2-3.61,18.33,18.33,0,0,1-.6-4.95V331.85h9.26V353A8.43,8.43,0,0,0,406,357.9q1.11,1.53,4.5,1.53a8.87,8.87,0,0,0,4.5-1.05,6.17,6.17,0,0,0,2.65-3.74V331.85Z"/><path d="M450.09,331.27a30.94,30.94,0,0,1,7.31.74,12.8,12.8,0,0,1,4.79,2.14,7.85,7.85,0,0,1,2.61,3.48,13.2,13.2,0,0,1,.8,4.82v23.88h-8.3l-.89-4a8.64,8.64,0,0,1-3.9,3.28,16,16,0,0,1-7.09,1.38q-5.81,0-8.81-2.59t-3-7.95q0-6,3.61-8.43t10.57-2.42h8.55v-.9a10.51,10.51,0,0,0-.28-2.62,3.31,3.31,0,0,0-1.12-1.75,5.34,5.34,0,0,0-2.24-1A16.79,16.79,0,0,0,449,339c-1.23,0-2.47.05-3.7.16a35.82,35.82,0,0,0-3.64.48v-7.86c1.32-.17,2.74-.3,4.28-.38S448.85,331.27,450.09,331.27Zm-2.3,28.61a12,12,0,0,0,5.43-1.12,6.62,6.62,0,0,0,3.12-2.9v-4h-7.15a10.89,10.89,0,0,0-4.95.83q-1.5.84-1.5,3.45a3.4,3.4,0,0,0,1.18,2.91A6.75,6.75,0,0,0,447.79,359.88Z"/><path d="M494.66,331.21a17.13,17.13,0,0,1,5.39.73,8.19,8.19,0,0,1,3.55,2.21,8.55,8.55,0,0,1,1.91,3.6,19.19,19.19,0,0,1,.58,5v23.56h-9.26V345.19a15,15,0,0,0-.26-3,4.64,4.64,0,0,0-.86-2,3.48,3.48,0,0,0-1.69-1.12,9.49,9.49,0,0,0-2.81-.35,9.68,9.68,0,0,0-4.72,1,5.79,5.79,0,0,0-2.62,3.71v22.86h-9.26V331.85h9.26V336a8.48,8.48,0,0,1,4.21-3.61A16.84,16.84,0,0,1,494.66,331.21Z"/><path d="M530.86,322h9.71v44.32h-9.71Z"/><path d="M579,330.5H567.39v35.83h-9.64V330.5H546.13V322H579Z"/><path d="M620.71,367a37.33,37.33,0,0,1-8.81-1,15.36,15.36,0,0,1-6.77-3.48,16.15,16.15,0,0,1-4.34-7,35.3,35.3,0,0,1-1.54-11.4,33.47,33.47,0,0,1,1.5-10.76,17.34,17.34,0,0,1,4.31-7.06,16.34,16.34,0,0,1,6.74-3.83,31.72,31.72,0,0,1,8.84-1.15A31,31,0,0,1,631,322.84v8.37a28.61,28.61,0,0,0-4.47-1.12,30.77,30.77,0,0,0-5.24-.41,16.2,16.2,0,0,0-5.17.73,7.72,7.72,0,0,0-3.57,2.43,10.81,10.81,0,0,0-2.08,4.43,29.25,29.25,0,0,0-.67,6.84,31,31,0,0,0,.67,7.12,10.32,10.32,0,0,0,2.08,4.4,7.29,7.29,0,0,0,3.54,2.27,18,18,0,0,0,5.08.64,31.93,31.93,0,0,0,5.26-.42,29,29,0,0,0,5.08-1.31v8.31a23.48,23.48,0,0,1-4.79,1.34A33.54,33.54,0,0,1,620.71,367Z"/><path d="M648.17,366.71a17.91,17.91,0,0,1-4.79-.54,7.44,7.44,0,0,1-3.1-1.63,5.81,5.81,0,0,1-1.66-2.78,14.68,14.68,0,0,1-.48-4v-40h9.26v37.74a5.06,5.06,0,0,0,.64,3.06,2.78,2.78,0,0,0,2.24.77l.83,0c.29,0,.63-.08,1-.16v7.15A20,20,0,0,1,648.17,366.71Z"/><path d="M688.08,331.85v34.48h-8.37l-.7-4.15a8.69,8.69,0,0,1-4.12,3.64,16.37,16.37,0,0,1-6.48,1.15,17.22,17.22,0,0,1-5.4-.74,8.43,8.43,0,0,1-3.57-2.2,8.53,8.53,0,0,1-2-3.61,17.92,17.92,0,0,1-.61-4.95V331.85h9.26V353a8.43,8.43,0,0,0,1.12,4.92q1.11,1.53,4.5,1.53a8.87,8.87,0,0,0,4.5-1.05,6.13,6.13,0,0,0,2.65-3.74V331.85Z"/><path d="M716.56,331.21a16.19,16.19,0,0,1,6.86,1.24A10,10,0,0,1,727.6,336a14.56,14.56,0,0,1,2.11,5.65,43.88,43.88,0,0,1,.58,7.41,40.33,40.33,0,0,1-.58,7,15.41,15.41,0,0,1-2.11,5.68,10.74,10.74,0,0,1-4.18,3.83,14.54,14.54,0,0,1-6.86,1.41,19.92,19.92,0,0,1-4.25-.39,10,10,0,0,1-3-1.11,7.42,7.42,0,0,1-2-1.73,8.52,8.52,0,0,1-1.31-2.26l-.64,4.85h-8.43V317.8h9.26V336a8.86,8.86,0,0,1,3.45-3.36A13.85,13.85,0,0,1,716.56,331.21Zm-2.94,28.73a7.3,7.3,0,0,0,3.8-.86,5.74,5.74,0,0,0,2.2-2.33,9.82,9.82,0,0,0,1-3.45,37.34,37.34,0,0,0,.22-4.21,35,35,0,0,0-.25-4.38,10.31,10.31,0,0,0-1-3.48,5.64,5.64,0,0,0-2.17-2.29,7.34,7.34,0,0,0-3.77-.84,9,9,0,0,0-3.9.74,5.91,5.91,0,0,0-2.45,2.14,8.77,8.77,0,0,0-1.28,3.45,27.06,27.06,0,0,0-.35,4.66,25.7,25.7,0,0,0,.35,4.5,8.87,8.87,0,0,0,1.28,3.42,6.28,6.28,0,0,0,2.45,2.17A8.74,8.74,0,0,0,713.62,359.94Z"/></svg>